<svg width="768" height="960" viewBox="0 0 768 960" fill="none" xmlns="http://www.w3.org/2000/svg">
<rect width="768" height="960" fill="white"/>
<path d="M576 672C576 725.019 533.019 768 480 768C426.981 768 384 725.019 384 672C384 618.981 426.981 576 480 576C533.019 576 576 618.981 576 672Z" fill="#EF4B43"/>
<path d="M384 960L384 912C463.529 912 528 847.529 528 768L576 768C576 874.039 490.039 960 384 960Z" fill="#0764A7"/>
<path d="M768 384C714.981 384 672 341.019 672 288H768V384Z" fill="#35A654"/>
<path d="M768 192C768 245.019 725.019 288 672 288L672 192L768 192Z" fill="#35A654"/>
<path d="M576 192C629.019 192 672 234.981 672 288L576 288L576 192Z" fill="#35A654"/>
<path d="M576 384C576 330.981 618.981 288 672 288L672 384L576 384Z" fill="#35A654"/>
<path d="M676.683 738.299C673.643 747.651 672 757.634 672 768C672 778.366 673.643 788.349 676.683 797.701L676.683 738.299Z" fill="#F9BD05"/>
<path d="M686.049 818.026C684.347 815.244 682.783 812.369 681.366 809.41L681.366 726.59C682.783 723.631 684.347 720.755 686.049 717.974L686.049 818.026Z" fill="#F9BD05"/>
<path d="M695.415 830.83C693.78 828.943 692.217 826.992 690.732 824.981L690.732 711.019C692.217 709.008 693.78 707.056 695.415 705.17L695.415 830.83Z" fill="#F9BD05"/>
<path d="M704.781 840.246C703.171 838.837 701.609 837.375 700.098 835.862L700.098 700.138C701.609 698.625 703.171 697.163 704.78 695.754L704.781 840.246Z" fill="#F9BD05"/>
<path d="M714.146 847.483C712.55 846.4 710.989 845.27 709.463 844.094L709.463 691.905C710.989 690.73 712.55 689.6 714.146 688.517L714.146 847.483Z" fill="#F9BD05"/>
<path d="M723.512 853.092C721.925 852.26 720.363 851.385 718.829 850.469L718.829 685.531C720.363 684.615 721.925 683.74 723.512 682.908L723.512 853.092Z" fill="#F9BD05"/>
<path d="M732.878 857.372C731.296 856.75 729.735 856.087 728.195 855.385L728.195 680.615C729.735 679.913 731.296 679.25 732.878 678.628L732.878 857.372Z" fill="#F9BD05"/>
<path d="M742.244 860.506C740.666 860.067 739.105 859.59 737.561 859.074L737.561 676.926C739.105 676.41 740.666 675.933 742.244 675.494L742.244 860.506Z" fill="#F9BD05"/>
<path d="M751.61 862.606C750.035 862.335 748.474 862.026 746.927 861.68L746.927 674.32C748.474 673.974 750.035 673.664 751.61 673.394L751.61 862.606Z" fill="#F9BD05"/>
<path d="M760.976 863.747C759.404 863.633 757.843 863.482 756.293 863.293L756.293 672.707C757.843 672.518 759.404 672.367 760.976 672.253L760.976 863.747Z" fill="#F9BD05"/>
<path d="M768 863.972C766.44 864.009 767.219 864.009 765.659 863.972L765.659 672.028C767.215 671.991 766.444 671.991 768 672.028L768 863.972Z" fill="#F9BD05"/>
<path fill-rule="evenodd" clip-rule="evenodd" d="M768 576C661.961 576 576 661.961 576 768C576 874.039 661.961 960 768 960L768 576ZM768 624C688.471 624 624 688.471 624 768C624 847.529 688.471 912 768 912L768 624Z" fill="#F9BD05"/>
<path d="M768 384H763.317V576H768V384Z" fill="#EF4B43"/>
<path d="M758.634 384H753.951V576H758.634V384Z" fill="#EF4B43"/>
<path d="M749.268 384H744.585V576H749.268V384Z" fill="#EF4B43"/>
<path d="M739.902 384H735.219V576H739.902V384Z" fill="#EF4B43"/>
<path d="M730.537 384H725.854V576H730.537V384Z" fill="#EF4B43"/>
<path d="M721.171 384H716.488V576H721.171V384Z" fill="#EF4B43"/>
<path d="M711.805 384H707.122V576H711.805V384Z" fill="#EF4B43"/>
<path d="M702.439 384H697.756V576H702.439V384Z" fill="#EF4B43"/>
<path d="M693.073 384H688.39V576H693.073V384Z" fill="#EF4B43"/>
<path d="M683.707 384H679.024V576H683.707V384Z" fill="#EF4B43"/>
<path d="M674.341 384H669.659V576H674.341V384Z" fill="#EF4B43"/>
<path d="M664.976 384H660.293V576H664.976V384Z" fill="#EF4B43"/>
<path d="M655.61 384H650.927V576H655.61V384Z" fill="#EF4B43"/>
<path d="M646.244 384H641.561V576H646.244V384Z" fill="#EF4B43"/>
<path d="M636.878 384H632.195V576H636.878V384Z" fill="#EF4B43"/>
<path d="M627.512 384H622.829V576H627.512V384Z" fill="#EF4B43"/>
<path d="M618.146 384H613.463V576H618.146V384Z" fill="#EF4B43"/>
<path d="M608.78 384H604.098V576H608.78V384Z" fill="#EF4B43"/>
<path d="M599.415 384H594.732V576H599.415V384Z" fill="#EF4B43"/>
<path d="M590.049 384H585.366V576H590.049V384Z" fill="#EF4B43"/>
<path d="M580.683 384H576V576H580.683V384Z" fill="#EF4B43"/>
<path d="M722.4 432H626.4V528H722.4V432Z" fill="#EF4B43"/>
<path fill-rule="evenodd" clip-rule="evenodd" d="M196.683 66.2986C193.643 75.6512 192 85.6337 192 96C192 106.366 193.643 116.349 196.683 125.701V66.2986ZM206.049 146.026C204.347 143.245 202.783 140.369 201.366 137.41V54.5899C202.783 51.6307 204.347 48.7555 206.049 45.9736V146.026ZM215.415 158.83C213.78 156.943 212.217 154.992 210.732 152.981V39.0192C212.217 37.0079 213.78 35.0565 215.415 33.1696V158.83ZM224.78 168.246C223.171 166.837 221.609 165.375 220.098 163.862V28.1379C221.609 26.6254 223.171 25.163 224.78 23.7536V168.246ZM234.146 175.483C232.55 174.4 230.989 173.27 229.463 172.095V19.9054C230.989 18.7303 232.55 17.6001 234.146 16.5166V175.483ZM243.512 181.092C241.925 180.26 240.363 179.385 238.829 178.469V13.5314C240.363 12.615 241.925 11.7401 243.512 10.9083V181.092ZM252.878 185.372C251.296 184.75 249.735 184.087 248.195 183.385V8.61539C249.735 7.91295 251.296 7.25 252.878 6.62784V185.372ZM262.244 188.506C260.666 188.067 259.105 187.59 257.561 187.074V4.92602C259.105 4.41026 260.666 3.93265 262.244 3.49432V188.506ZM271.61 190.606C270.035 190.336 268.474 190.026 266.927 189.68V2.32019C268.474 1.97366 270.035 1.66447 271.61 1.39364V190.606ZM280.976 191.747C279.404 191.633 277.843 191.482 276.293 191.293V0.706684C277.843 0.518245 279.404 0.366739 280.976 0.253074V191.747ZM290.341 191.972C289.563 191.991 288.783 192 288 192C287.217 192 286.437 191.991 285.659 191.972V0.0279955C286.437 0.00936716 287.217 0 288 0C288.783 0 289.563 0.00936716 290.341 0.0279955V191.972ZM299.707 191.293C298.157 191.482 296.596 191.633 295.024 191.747V0.253074C296.596 0.366738 298.157 0.518244 299.707 0.706683V191.293ZM309.073 189.68C307.526 190.026 305.965 190.336 304.39 190.606V1.39364C305.965 1.66447 307.526 1.97366 309.073 2.32019V189.68ZM318.439 187.074C316.895 187.59 315.334 188.067 313.756 188.506V3.49431C315.334 3.93265 316.895 4.41025 318.439 4.92602V187.074ZM327.805 183.385C326.265 184.087 324.704 184.75 323.122 185.372V6.62783C324.704 7.25 326.265 7.91295 327.805 8.61539V183.385ZM337.171 178.469C335.637 179.385 334.075 180.26 332.488 181.092V10.9083C334.075 11.7401 335.637 12.615 337.171 13.5314V178.469ZM346.537 172.095C345.011 173.27 343.45 174.4 341.854 175.483V16.5166C343.45 17.6001 345.011 18.7303 346.537 19.9055V172.095ZM355.902 163.862C354.391 165.375 352.829 166.837 351.219 168.246V23.7536C352.829 25.163 354.391 26.6254 355.902 28.1379V163.862ZM365.268 152.981C363.783 154.992 362.22 156.943 360.585 158.83V33.1696C362.22 35.0565 363.783 37.0079 365.268 39.0192V152.981ZM374.634 137.41C373.217 140.369 371.653 143.245 369.951 146.026V45.9736C371.653 48.7554 373.217 51.6307 374.634 54.5898V137.41ZM384 96C384 106.366 382.357 116.349 379.317 125.701V66.2986C382.357 75.6512 384 85.6337 384 96Z" fill="#7EC24D"/>
<path d="M384 96C384 149.019 341.019 192 288 192V0C341.019 0 384 42.9807 384 96Z" fill="#7EC24D"/>
<path d="M0.000488281 0C53.0198 0 96.0005 42.9807 96.0005 96C96.0005 42.9807 138.981 0 192 0V96C192 149.019 149.02 192 96.0005 192C42.9811 192 0.000488281 149.019 0.000488281 96V0Z" fill="#0984DD"/>
<path d="M192 288C192 341.019 149.019 384 96 384C42.9807 384 0 341.019 0 288H192Z" fill="#EF4B43"/>
<path d="M0.000204282 192H4.68313V288L0 288L0.000204282 192Z" fill="#EF4B43"/>
<path d="M9.36606 192H14.049V288H9.36606V192Z" fill="#EF4B43"/>
<path d="M18.7319 192H23.4148V288H18.7319V192Z" fill="#EF4B43"/>
<path d="M28.0978 192H32.7807V288H28.0978V192Z" fill="#EF4B43"/>
<path d="M37.4636 192H42.1465V288H37.4636V192Z" fill="#EF4B43"/>
<path d="M46.8295 192H51.5124V288H46.8295V192Z" fill="#EF4B43"/>
<path d="M56.1953 192H60.8782V288H56.1953V192Z" fill="#EF4B43"/>
<path d="M65.5612 192H70.2441V288H65.5612V192Z" fill="#EF4B43"/>
<path d="M74.927 192H79.6099V288H74.927V192Z" fill="#EF4B43"/>
<path d="M84.2929 192H88.9758V288H84.2929V192Z" fill="#EF4B43"/>
<path d="M93.6587 192H98.3417V288H93.6587V192Z" fill="#EF4B43"/>
<path d="M103.025 192H107.708V288H103.025V192Z" fill="#EF4B43"/>
<path d="M112.39 192H117.073V288H112.39V192Z" fill="#EF4B43"/>
<path d="M121.756 192H126.439V288H121.756V192Z" fill="#EF4B43"/>
<path d="M131.122 192H135.805V288H131.122V192Z" fill="#EF4B43"/>
<path d="M140.488 192H145.171V288H140.488V192Z" fill="#EF4B43"/>
<path d="M149.854 192H154.537V288H149.854V192Z" fill="#EF4B43"/>
<path d="M159.22 192H163.903V288H159.22V192Z" fill="#EF4B43"/>
<path d="M168.586 192H173.268V288H168.586V192Z" fill="#EF4B43"/>
<path d="M177.951 192H182.634V288H177.951V192Z" fill="#EF4B43"/>
<path d="M187.317 192H192L192 288L187.317 288V192Z" fill="#EF4B43"/>
<path fill-rule="evenodd" clip-rule="evenodd" d="M480 192C533.019 192 576 149.019 576 96C576 42.9807 533.019 0 480 0C426.981 0 384 42.9807 384 96C384 149.019 426.981 192 480 192ZM480 144C506.51 144 528 122.51 528 96C528 69.4903 506.51 48 480 48C453.49 48 432 69.4903 432 96C432 122.51 453.49 144 480 144Z" fill="#35A654"/>
<path d="M435.512 77.9431C433.247 83.5171 432 89.6129 432 96C432 102.387 433.247 108.483 435.512 114.057V77.9431Z" fill="#35A654"/>
<path d="M444.878 128.718C443.169 126.885 441.603 124.917 440.195 122.833V69.1665C441.603 67.0827 443.169 65.1154 444.878 63.282V128.718Z" fill="#35A654"/>
<path d="M454.244 136.512C452.613 135.473 451.05 134.338 449.561 133.116V58.884C451.05 57.6616 452.613 56.527 454.244 55.4882V136.512Z" fill="#35A654"/>
<path d="M463.61 141.129C462.007 140.547 460.445 139.882 458.927 139.139V52.8611C460.445 52.1183 462.007 51.4533 463.61 50.8711V141.129Z" fill="#35A654"/>
<path d="M472.976 143.49C471.388 143.257 469.826 142.946 468.293 142.562V49.4379C469.826 49.0536 471.388 48.7431 472.976 48.5103V143.49Z" fill="#35A654"/>
<path d="M482.341 143.944C481.566 143.981 480.785 144 480 144C479.215 144 478.434 143.981 477.658 143.944V48.0561C478.434 48.0188 479.215 48 480 48C480.785 48 481.566 48.0188 482.341 48.0561V143.944Z" fill="#35A654"/>
<path d="M491.707 142.562C490.174 142.946 488.612 143.257 487.024 143.49V48.5103C488.612 48.7431 490.174 49.0536 491.707 49.4379V142.562Z" fill="#35A654"/>
<path d="M501.073 139.139C499.555 139.882 497.993 140.547 496.39 141.129V50.8711C497.993 51.4533 499.555 52.1183 501.073 52.8611V139.139Z" fill="#35A654"/>
<path d="M510.439 133.116C508.95 134.338 507.387 135.473 505.756 136.512V55.4882C507.387 56.527 508.95 57.6616 510.439 58.8839V133.116Z" fill="#35A654"/>
<path d="M519.805 122.834C518.397 124.917 516.831 126.885 515.122 128.718V63.282C516.831 65.1154 518.397 67.0827 519.805 69.1664V122.834Z" fill="#35A654"/>
<path d="M524.488 77.943C526.752 83.517 528 89.6128 528 96C528 102.387 526.752 108.483 524.488 114.057V77.943Z" fill="#35A654"/>
<path d="M4.68293 834.299C1.64305 843.651 0 853.634 0 864C0 874.366 1.64305 884.349 4.68293 893.701V834.299Z" fill="#35A654"/>
<path d="M14.0488 914.026C12.347 911.245 10.7828 908.369 9.36585 905.41V822.59C10.7828 819.631 12.347 816.755 14.0488 813.974V914.026Z" fill="#35A654"/>
<path d="M23.4146 926.83C21.7799 924.943 20.2175 922.992 18.7317 920.981V807.019C20.2175 805.008 21.7799 803.057 23.4146 801.17V926.83Z" fill="#35A654"/>
<path d="M32.7805 936.246C31.1711 934.837 29.6092 933.375 28.0976 931.862V796.138C29.6092 794.625 31.1711 793.163 32.7805 791.754V936.246Z" fill="#35A654"/>
<path d="M42.1463 943.483C40.5504 942.4 38.9887 941.27 37.4634 940.095V787.905C38.9887 786.73 40.5504 785.6 42.1463 784.517V943.483Z" fill="#35A654"/>
<path d="M51.5122 949.092C49.9245 948.26 48.363 947.385 46.8293 946.469V781.531C48.363 780.615 49.9245 779.74 51.5122 778.908V949.092Z" fill="#35A654"/>
<path d="M60.878 953.372C59.2961 952.75 57.7347 952.087 56.1951 951.385V776.615C57.7347 775.913 59.2961 775.25 60.878 774.628V953.372Z" fill="#35A654"/>
<path d="M70.2439 956.506C68.6662 956.067 67.1049 955.59 65.561 955.074V772.926C67.1049 772.41 68.6662 771.933 70.2439 771.494V956.506Z" fill="#35A654"/>
<path d="M79.6097 958.606C78.0353 958.336 76.474 958.026 74.9268 957.68V770.32C76.474 769.974 78.0353 769.664 79.6097 769.394V958.606Z" fill="#35A654"/>
<path d="M88.9756 959.747C87.4038 959.633 85.8426 959.482 84.2927 959.293V768.707C85.8426 768.518 87.4038 768.367 88.9756 768.253V959.747Z" fill="#35A654"/>
<path d="M98.3415 959.972C97.5632 959.991 96.7827 960 96 960C95.2173 960 94.4368 959.991 93.6585 959.972V768.028C94.4368 768.009 95.2173 768 96 768C96.7827 768 97.5632 768.009 98.3415 768.028V959.972Z" fill="#35A654"/>
<path d="M107.707 959.293C106.157 959.482 104.596 959.633 103.024 959.747V768.253C104.596 768.367 106.157 768.518 107.707 768.707V959.293Z" fill="#35A654"/>
<path d="M117.073 957.68C115.526 958.026 113.965 958.336 112.39 958.606V769.394C113.965 769.664 115.526 769.974 117.073 770.32V957.68Z" fill="#35A654"/>
<path d="M126.439 955.074C124.895 955.59 123.334 956.067 121.756 956.506V771.494C123.334 771.933 124.895 772.41 126.439 772.926V955.074Z" fill="#35A654"/>
<path d="M135.805 951.385C134.265 952.087 132.704 952.75 131.122 953.372V774.628C132.704 775.25 134.265 775.913 135.805 776.615V951.385Z" fill="#35A654"/>
<path d="M145.171 946.469C143.637 947.385 142.075 948.26 140.488 949.092V778.908C142.075 779.74 143.637 780.615 145.171 781.531V946.469Z" fill="#35A654"/>
<path d="M154.537 940.095C153.011 941.27 151.45 942.4 149.854 943.483V784.517C151.45 785.6 153.011 786.73 154.537 787.905V940.095Z" fill="#35A654"/>
<path d="M163.902 931.862C162.391 933.375 160.829 934.837 159.219 936.246V791.754C160.829 793.163 162.391 794.625 163.902 796.138V931.862Z" fill="#35A654"/>
<path d="M173.268 920.981C171.783 922.992 170.22 924.943 168.585 926.83V801.17C170.22 803.057 171.783 805.008 173.268 807.019V920.981Z" fill="#35A654"/>
<path d="M182.634 905.41C181.217 908.369 179.653 911.245 177.951 914.026V813.974C179.653 816.755 181.217 819.631 182.634 822.59V905.41Z" fill="#35A654"/>
<path d="M192 864C192 874.366 190.357 884.349 187.317 893.701V834.299C190.357 843.651 192 853.634 192 864Z" fill="#35A654"/>
<path d="M144 864C144 890.51 122.51 912 96 912C69.4903 912 48 890.51 48 864C48 837.49 69.4903 816 96 816C122.51 816 144 837.49 144 864Z" fill="#35A654"/>
<path d="M96 576C96 565.634 94.3569 555.651 91.3171 546.299V576H96Z" fill="#F9BD05"/>
<path d="M81.9512 525.974C83.653 528.756 85.2171 531.631 86.6341 534.59L86.6341 576H81.9512V525.974Z" fill="#F9BD05"/>
<path d="M72.5854 513.17C74.2201 515.057 75.7825 517.008 77.2683 519.02V576H72.5854L72.5854 513.17Z" fill="#F9BD05"/>
<path d="M63.2195 503.754C64.8289 505.163 66.3908 506.626 67.9024 508.138V576H63.2195L63.2195 503.754Z" fill="#F9BD05"/>
<path d="M53.8536 496.517C55.4496 497.6 57.0113 498.731 58.5366 499.906V576H53.8536V496.517Z" fill="#F9BD05"/>
<path d="M44.4878 490.909C46.0754 491.74 47.6369 492.615 49.1707 493.532L49.1707 576H44.4878V490.909Z" fill="#F9BD05"/>
<path d="M35.1219 486.628C36.7039 487.25 38.2653 487.913 39.8049 488.616V576H35.1219V486.628Z" fill="#F9BD05"/>
<path d="M25.7561 483.495C27.3338 483.933 28.8951 484.411 30.439 484.926L30.439 576H25.7561L25.7561 483.495Z" fill="#F9BD05"/>
<path d="M16.3902 481.394C17.9646 481.665 19.526 481.974 21.0732 482.32L21.0732 576H16.3902L16.3902 481.394Z" fill="#F9BD05"/>
<path d="M7.02438 480.253C8.59614 480.367 10.1574 480.519 11.7073 480.707L11.7073 576H7.02439L7.02438 480.253Z" fill="#F9BD05"/>
<path d="M0 480.028C1.55646 479.991 0.784989 479.991 2.34145 480.028L2.34146 576H7.96111e-06L0 480.028Z" fill="#F9BD05"/>
<path fill-rule="evenodd" clip-rule="evenodd" d="M192 576C192 469.961 106.039 384 0 384V432C79.529 432 144 496.471 144 576L192 576Z" fill="#F9BD05"/>
<path d="M0 768V720C79.529 720 144 655.529 144 576L192 576C192 682.039 106.039 768 0 768Z" fill="#0764A7"/>
<path d="M384 576H288L384 672V576Z" fill="#35A654"/>
<path d="M384 672L288 672L384 768L384 672Z" fill="#35A654"/>
<path d="M288 576L192 576L288 672L288 576Z" fill="#35A654"/>
<path d="M288 672H192L288 768L288 672Z" fill="#35A654"/>
<path d="M768 0H576L624 48H720V144L768 192V0Z" fill="#EF4B43"/>
<path d="M624 144H720L624 48L624 144Z" fill="#EF4B43"/>
<path fill-rule="evenodd" clip-rule="evenodd" d="M576 192C469.961 192 384 277.961 384 384V576C490.039 576 576 490.039 576 384V192ZM422.4 384C422.4 312.428 471.351 252.29 537.6 235.239V384C537.6 455.571 488.649 515.709 422.4 532.761V384Z" fill="#7EC24D"/>
<path d="M500.199 250.376C503.11 248.721 506.08 247.159 509.105 245.693H537.6V250.376H500.199Z" fill="#7EC24D"/>
<path d="M485.689 259.742C487.914 258.122 490.184 256.56 492.497 255.059L537.6 255.059V259.742H485.689Z" fill="#7EC24D"/>
<path d="M474.053 269.107C475.859 267.504 477.702 265.943 479.583 264.424L537.6 264.424V269.107H474.053Z" fill="#7EC24D"/>
<path d="M464.388 278.473C465.896 276.88 467.437 275.318 469.01 273.79L537.6 273.79V278.473L464.388 278.473Z" fill="#7EC24D"/>
<path d="M456.218 287.839C457.494 286.252 458.801 284.691 460.137 283.156L537.6 283.156V287.839H456.218Z" fill="#7EC24D"/>
<path d="M449.256 297.205C450.342 295.622 451.457 294.061 452.599 292.522L537.6 292.522V297.205L449.256 297.205Z" fill="#7EC24D"/>
<path d="M443.315 306.571C444.239 304.992 445.189 303.43 446.167 301.888H537.6V306.571H443.315Z" fill="#7EC24D"/>
<path d="M438.265 315.937C439.046 314.36 439.853 312.799 440.685 311.254L537.6 311.254V315.937L438.265 315.937Z" fill="#7EC24D"/>
<path d="M434.015 325.303C434.666 323.728 435.343 322.167 436.045 320.62H537.6V325.303H434.015Z" fill="#7EC24D"/>
<path d="M430.494 334.668C431.027 333.096 431.584 331.535 432.166 329.985H537.6V334.668L430.494 334.668Z" fill="#7EC24D"/>
<path d="M427.651 344.034C428.073 342.463 428.52 340.902 428.99 339.351H537.6V344.034H427.651Z" fill="#7EC24D"/>
<path d="M425.448 353.4C425.774 351.791 426.124 350.191 426.499 348.6H537.6V353.4L425.448 353.4Z" fill="#7EC24D"/>
<path d="M423.872 362.649C424.09 361.08 424.332 359.519 424.597 357.966L537.6 357.966V362.649H423.872Z" fill="#7EC24D"/>
<path d="M422.861 372.015C422.982 370.447 423.127 368.886 423.294 367.332H537.6V372.015L422.861 372.015Z" fill="#7EC24D"/>
<path d="M422.422 381.381C422.448 379.814 422.498 378.253 422.571 376.698H537.6V381.381H422.422Z" fill="#7EC24D"/>
<path d="M422.4 390.746V386.064H537.587C537.566 387.63 537.522 389.191 537.455 390.746L422.4 390.746Z" fill="#7EC24D"/>
<path d="M422.4 400.112V395.429L537.181 395.429C537.066 396.997 536.927 398.558 536.765 400.112H422.4Z" fill="#7EC24D"/>
<path d="M422.4 409.478V404.795H536.205C535.992 406.364 535.756 407.925 535.497 409.478L422.4 409.478Z" fill="#7EC24D"/>
<path d="M422.4 418.844V414.161H534.64C534.328 415.731 533.991 417.292 533.631 418.844H422.4Z" fill="#7EC24D"/>
<path d="M422.4 428.21V423.527H532.467C532.049 425.098 531.608 426.659 531.143 428.21L422.4 428.21Z" fill="#7EC24D"/>
<path d="M422.4 437.576V432.893L529.655 432.893C529.127 434.465 528.575 436.026 527.998 437.576H422.4Z" fill="#7EC24D"/>
<path d="M422.4 446.942V442.259H526.167C525.521 443.833 524.85 445.394 524.154 446.942L422.4 446.942Z" fill="#7EC24D"/>
<path d="M422.4 456.307V451.624H521.951C521.177 453.201 520.377 454.762 519.55 456.307H422.4Z" fill="#7EC24D"/>
<path d="M422.4 465.673V460.99H516.941C516.024 462.569 515.081 464.131 514.11 465.673H422.4Z" fill="#7EC24D"/>
<path d="M422.4 475.039V470.356H511.044C509.966 471.939 508.86 473.5 507.725 475.039H422.4Z" fill="#7EC24D"/>
<path d="M422.4 484.405V479.722H504.133C502.867 481.309 501.57 482.87 500.244 484.405H422.4Z" fill="#7EC24D"/>
<path d="M422.4 493.771V489.088H496.025C494.53 490.681 493.001 492.243 491.44 493.771H422.4Z" fill="#7EC24D"/>
<path d="M422.4 503.137V498.454H486.439C484.649 500.057 482.822 501.618 480.958 503.137H422.4Z" fill="#7EC24D"/>
<path d="M422.4 512.503V507.82H474.911C472.71 509.439 470.463 511 468.175 512.503H422.4Z" fill="#7EC24D"/>
<path d="M422.4 521.868V517.185H460.567C457.699 518.838 454.773 520.4 451.792 521.868H422.4Z" fill="#7EC24D"/>
<path d="M422.4 531.234V526.551H441.311C436.937 528.311 432.464 529.876 427.902 531.234H422.4Z" fill="#7EC24D"/>
<path d="M537.6 241.01H519.791C524.294 239.238 528.9 237.674 533.599 236.327H537.6V241.01Z" fill="#7EC24D"/>
<path fill-rule="evenodd" clip-rule="evenodd" d="M192 192C298.039 192 384 277.961 384 384V576C277.961 576 192 490.039 192 384V192ZM345.6 384C345.6 312.428 296.649 252.29 230.4 235.239V384C230.4 455.571 279.351 515.709 345.6 532.761V384Z" fill="#0984DD"/>
<path d="M267.8 250.376C264.89 248.721 261.92 247.159 258.895 245.693H230.4V250.376H267.8Z" fill="#0984DD"/>
<path d="M282.311 259.742C280.086 258.122 277.816 256.56 275.503 255.059L230.4 255.059V259.742H282.311Z" fill="#0984DD"/>
<path d="M293.947 269.107C292.141 267.504 290.297 265.943 288.417 264.424L230.4 264.424V269.107H293.947Z" fill="#0984DD"/>
<path d="M303.612 278.473C302.104 276.88 300.563 275.318 298.99 273.79L230.4 273.79V278.473L303.612 278.473Z" fill="#0984DD"/>
<path d="M311.782 287.839C310.506 286.252 309.199 284.691 307.863 283.156L230.4 283.156V287.839H311.782Z" fill="#0984DD"/>
<path d="M318.744 297.205C317.658 295.622 316.543 294.061 315.4 292.522L230.4 292.522V297.205L318.744 297.205Z" fill="#0984DD"/>
<path d="M324.685 306.571C323.761 304.992 322.81 303.43 321.833 301.888H230.4V306.571H324.685Z" fill="#0984DD"/>
<path d="M329.734 315.937C328.954 314.36 328.147 312.799 327.315 311.254L230.4 311.254V315.937L329.734 315.937Z" fill="#0984DD"/>
<path d="M333.985 325.303C333.334 323.728 332.657 322.167 331.955 320.62H230.4V325.303H333.985Z" fill="#0984DD"/>
<path d="M337.506 334.668C336.973 333.096 336.416 331.535 335.834 329.985H230.4V334.668L337.506 334.668Z" fill="#0984DD"/>
<path d="M340.349 344.034C339.926 342.463 339.48 340.902 339.01 339.351H230.4V344.034H340.349Z" fill="#0984DD"/>
<path d="M342.551 353.4C342.226 351.791 341.876 350.191 341.5 348.6H230.4V353.4L342.551 353.4Z" fill="#0984DD"/>
<path d="M344.128 362.649C343.909 361.08 343.668 359.519 343.402 357.966L230.4 357.966V362.649H344.128Z" fill="#0984DD"/>
<path d="M345.139 372.015C345.018 370.447 344.873 368.886 344.706 367.332H230.4V372.015L345.139 372.015Z" fill="#0984DD"/>
<path d="M345.578 381.381C345.551 379.814 345.502 378.253 345.429 376.698H230.4V381.381H345.578Z" fill="#0984DD"/>
<path d="M345.6 390.746V386.064H230.413C230.434 387.63 230.478 389.191 230.545 390.746L345.6 390.746Z" fill="#0984DD"/>
<path d="M345.6 400.112V395.429L230.818 395.429C230.934 396.997 231.073 398.558 231.235 400.112H345.6Z" fill="#0984DD"/>
<path d="M345.6 409.478V404.795H231.795C232.008 406.364 232.244 407.925 232.503 409.478L345.6 409.478Z" fill="#0984DD"/>
<path d="M345.6 418.844V414.161H233.36C233.672 415.731 234.009 417.292 234.369 418.844H345.6Z" fill="#0984DD"/>
<path d="M345.6 428.21V423.527H235.533C235.951 425.098 236.392 426.659 236.857 428.21L345.6 428.21Z" fill="#0984DD"/>
<path d="M345.6 437.576V432.893L238.345 432.893C238.873 434.465 239.425 436.026 240.002 437.576H345.6Z" fill="#0984DD"/>
<path d="M345.6 446.942V442.259H241.833C242.479 443.833 243.15 445.394 243.846 446.942L345.6 446.942Z" fill="#0984DD"/>
<path d="M345.6 456.307V451.624H246.049C246.823 453.201 247.623 454.762 248.449 456.307H345.6Z" fill="#0984DD"/>
<path d="M345.6 465.673V460.99H251.059C251.975 462.569 252.919 464.131 253.89 465.673H345.6Z" fill="#0984DD"/>
<path d="M345.6 475.039V470.356H256.956C258.033 471.939 259.14 473.5 260.275 475.039H345.6Z" fill="#0984DD"/>
<path d="M345.6 484.405V479.722H263.866C265.133 481.309 266.429 482.87 267.756 484.405H345.6Z" fill="#0984DD"/>
<path d="M345.6 493.771V489.088H271.975C273.47 490.681 274.999 492.243 276.56 493.771H345.6Z" fill="#0984DD"/>
<path d="M345.6 503.137V498.454H281.561C283.351 500.057 285.178 501.618 287.042 503.137H345.6Z" fill="#0984DD"/>
<path d="M345.6 512.503V507.82H293.089C295.29 509.439 297.536 511 299.825 512.503H345.6Z" fill="#0984DD"/>
<path d="M345.6 521.868V517.185H307.433C310.301 518.838 313.227 520.4 316.208 521.868H345.6Z" fill="#0984DD"/>
<path d="M345.6 531.234V526.551H326.689C331.063 528.311 335.536 529.876 340.098 531.234H345.6Z" fill="#0984DD"/>
<path d="M230.4 241.01H248.209C243.706 239.238 239.1 237.674 234.401 236.327H230.4V241.01Z" fill="#0984DD"/>
<path d="M192 768H384L192 960V768Z" fill="#7EC24D"/>
<path d="M196.683 834.299C193.643 843.651 192 853.634 192 864C192 874.366 193.643 884.349 196.683 893.701V834.299Z" fill="#7EC24D"/>
<path d="M206.049 914.026C204.347 911.245 202.783 908.369 201.366 905.41V822.59C202.783 819.631 204.347 816.755 206.049 813.974V914.026Z" fill="#7EC24D"/>
<path d="M215.415 926.83C213.78 924.943 212.217 922.992 210.732 920.981V807.019C212.217 805.008 213.78 803.057 215.415 801.17V926.83Z" fill="#7EC24D"/>
<path d="M224.78 936.246C223.171 934.837 221.609 933.375 220.098 931.862V796.138C221.609 794.625 223.171 793.163 224.78 791.754V936.246Z" fill="#7EC24D"/>
<path d="M234.146 943.483C232.55 942.4 230.989 941.27 229.463 940.095V787.905C230.989 786.73 232.55 785.6 234.146 784.517V943.483Z" fill="#7EC24D"/>
<path d="M243.512 949.092C241.925 948.26 240.363 947.385 238.829 946.469V781.531C240.363 780.615 241.925 779.74 243.512 778.908V949.092Z" fill="#7EC24D"/>
<path d="M252.878 953.372C251.296 952.75 249.735 952.087 248.195 951.385V776.615C249.735 775.913 251.296 775.25 252.878 774.628V953.372Z" fill="#7EC24D"/>
<path d="M262.244 956.506C260.666 956.067 259.105 955.59 257.561 955.074V772.926C259.105 772.41 260.666 771.933 262.244 771.494V956.506Z" fill="#7EC24D"/>
<path d="M271.61 958.606C270.035 958.336 268.474 958.026 266.927 957.68V770.32C268.474 769.974 270.035 769.664 271.61 769.394V958.606Z" fill="#7EC24D"/>
<path d="M280.976 959.747C279.404 959.633 277.843 959.482 276.293 959.293V768.707C277.843 768.518 279.404 768.367 280.976 768.253V959.747Z" fill="#7EC24D"/>
<path d="M290.341 959.972C289.563 959.991 288.783 960 288 960C287.217 960 286.437 959.991 285.659 959.972V768.028C286.437 768.009 287.217 768 288 768C288.783 768 289.563 768.009 290.341 768.028V959.972Z" fill="#7EC24D"/>
<path d="M299.707 959.293C298.157 959.482 296.596 959.633 295.024 959.747V768.253C296.596 768.367 298.157 768.518 299.707 768.707V959.293Z" fill="#7EC24D"/>
<path d="M309.073 957.68C307.526 958.026 305.965 958.336 304.39 958.606V769.394C305.965 769.664 307.526 769.974 309.073 770.32V957.68Z" fill="#7EC24D"/>
<path d="M318.439 955.074C316.895 955.59 315.334 956.067 313.756 956.506V771.494C315.334 771.933 316.895 772.41 318.439 772.926V955.074Z" fill="#7EC24D"/>
<path d="M327.805 951.385C326.265 952.087 324.704 952.75 323.122 953.372V774.628C324.704 775.25 326.265 775.913 327.805 776.615V951.385Z" fill="#7EC24D"/>
<path d="M337.171 946.469C335.637 947.385 334.075 948.26 332.488 949.092V778.908C334.075 779.74 335.637 780.615 337.171 781.531V946.469Z" fill="#7EC24D"/>
<path d="M346.537 940.095C345.011 941.27 343.45 942.4 341.854 943.483V784.517C343.45 785.6 345.011 786.73 346.537 787.905V940.095Z" fill="#7EC24D"/>
<path d="M355.902 931.862C354.391 933.375 352.829 934.837 351.219 936.246V791.754C352.829 793.163 354.391 794.625 355.902 796.138V931.862Z" fill="#7EC24D"/>
<path d="M365.268 920.981C363.783 922.992 362.22 924.943 360.585 926.83V801.17C362.22 803.057 363.783 805.008 365.268 807.019V920.981Z" fill="#7EC24D"/>
<path d="M374.634 905.41C373.217 908.369 371.653 911.245 369.951 914.026V813.974C371.653 816.755 373.217 819.631 374.634 822.59V905.41Z" fill="#7EC24D"/>
<path d="M384 864C384 874.366 382.357 884.349 379.317 893.701V834.299C382.357 843.651 384 853.634 384 864Z" fill="#7EC24D"/>
</svg>
