<svg width="720" height="960" viewBox="0 0 720 960" fill="none" xmlns="http://www.w3.org/2000/svg">
<path d="M24 24H136C197.856 24 248 74.1441 248 136V252H24V24Z" fill="#FACB44"/>
<path d="M24 364C24 302.144 74.1441 252 136 252C197.856 252 248 302.144 248 364V368C248 429.856 197.856 480 136 480C74.1441 480 24 429.856 24 368V364Z" fill="#35A654"/>
<path d="M24 480H248V596C248 657.856 197.856 708 136 708C74.1441 708 24 657.856 24 596V480Z" fill="#0764A7"/>
<path d="M24 708H136C197.856 708 248 758.144 248 820V936H24V708Z" fill="#64AFEA"/>
<path d="M248 24H472V252H360C298.144 252 248 201.856 248 140V24Z" fill="#EF4B43"/>
<path d="M248 364C248 302.144 298.144 252 360 252H472V480H360C298.144 480 248 429.856 248 368V364Z" fill="#F37672"/>
<path d="M248 820C248 758.144 298.144 708 360 708C421.856 708 472 758.144 472 820V824C472 885.856 421.856 936 360 936C298.144 936 248 885.856 248 824V820Z" fill="#35A654"/>
<path d="M472 136C472 74.1441 522.144 24 584 24H696V252H472V136Z" fill="#64AFEA"/>
<path d="M472 252H584C645.856 252 696 302.144 696 364V480H584C522.144 480 472 429.856 472 368V252Z" fill="#7EC24D"/>
<path d="M248 480H584C645.856 480 696 530.144 696 592V708H360C298.144 708 248 657.856 248 596V480Z" fill="#0984DD"/>
<path d="M472 820C472 758.144 522.144 708 584 708H696V824C696 885.856 645.856 936 584 936H472V820Z" fill="#EF4B43"/>
</svg>
